<svg xmlns="http://www.w3.org/2000/svg" width="512" height="512" viewBox="0 0 512 512" version="1.1">
	<path d="M 0 256.002 L 0 512.004 256.250 511.752 L 512.500 511.500 512.752 255.750 L 513.004 0 256.502 0 L 0 0 0 256.002 M 0.492 256.500 C 0.492 397.300, 0.608 454.751, 0.750 384.170 C 0.892 313.588, 0.892 198.388, 0.750 128.170 C 0.608 57.951, 0.492 115.700, 0.492 256.500 M 10 11 C 8.011 12.989, 8 14.333, 8 255.545 L 8 498.091 10.543 500.634 L 13.087 503.177 255.624 502.839 C 494.352 502.505, 498.184 502.470, 499.581 500.559 C 500.797 498.895, 501 463.884, 501 255.464 C 501 21.170, 500.933 12.250, 499.171 10.655 C 497.480 9.125, 479.076 9, 254.671 9 C 13.333 9, 11.989 9.011, 10 11 M 236.399 41.456 C 192.416 48.289, 156.125 82.008, 144.547 126.799 C 141.152 139.935, 141.390 143.690, 145.806 146.656 C 148.936 148.758, 155.155 151.083, 161.250 152.430 C 163.837 153.002, 164 153.359, 164 158.460 C 164 161.702, 163.497 164.205, 162.750 164.686 C 161.168 165.704, 150.531 166.802, 132 167.861 C 124.025 168.316, 116.717 169.030, 115.761 169.447 C 113.174 170.575, 111.723 177.502, 112.228 186.310 C 112.885 197.761, 113.694 198.363, 129.273 199 L 141.500 199.500 141.799 205.216 C 142.051 210.040, 142.519 211.267, 144.799 213.078 C 147.177 214.967, 148.369 215.160, 154.759 214.688 L 162.019 214.153 161.759 263.826 L 161.500 313.500 154.250 313.794 L 147 314.088 147 328.009 C 147 341.132, 147.120 341.994, 149.102 343.055 C 150.258 343.674, 152.125 343.939, 153.251 343.645 C 154.376 343.350, 156.580 343.366, 158.149 343.680 L 161 344.250 161 357.003 C 161 366.013, 160.633 370.044, 159.750 370.739 C 159.063 371.280, 155.125 372.724, 151 373.949 C 135.853 378.445, 124.246 385.774, 121.370 392.657 C 120.386 395.012, 120 400.898, 120 413.548 L 120 431.160 125.828 436.988 C 142.048 453.208, 185.570 465.241, 238.058 468.018 C 295.441 471.053, 359.353 458.406, 380.444 439.841 C 387.479 433.648, 387.697 432.847, 387.849 412.573 C 387.979 395.200, 387.907 394.517, 385.516 390.437 C 381.562 383.689, 371.077 377.490, 356.052 373.015 L 349 370.915 349 363.368 L 349 355.820 357.373 356.518 C 370.251 357.591, 370 357.809, 370 345.526 L 370 335.187 373.276 336.193 C 381.092 338.591, 391.607 331.886, 394.007 322.974 C 396.453 313.892, 392.719 303.992, 385.567 300.599 C 381.700 298.764, 373.417 298.258, 370.362 299.671 C 369.338 300.144, 364.108 300.381, 358.739 300.197 L 348.978 299.862 349.239 258.181 L 349.500 216.500 351.750 216.180 C 353.821 215.886, 354 216.251, 354 220.775 C 354 228.397, 355.187 229.003, 370.079 228.985 C 376.910 228.976, 383.124 228.574, 383.888 228.091 C 384.981 227.398, 385.236 224.158, 385.088 212.805 L 384.902 198.399 388.622 195.949 C 393.441 192.778, 395.907 189.345, 396.648 184.782 C 398.193 175.263, 392.702 166.904, 383.686 165.047 C 377.598 163.793, 372.919 164.819, 369.192 168.226 L 366.704 170.500 367.259 168.246 C 367.961 165.399, 366.190 164.937, 355.809 165.260 C 350.895 165.413, 347.684 165.070, 346.917 164.309 C 346.258 163.654, 345.503 160.885, 345.241 158.155 L 344.764 153.193 353.229 150.611 C 362.894 147.663, 367 144.939, 367 141.474 C 367 137.890, 361.054 116.443, 357.888 108.608 C 352.642 95.627, 346.192 86.267, 334 73.943 C 327.675 67.549, 319.238 60.188, 315.252 57.584 C 293.166 43.156, 263.938 37.178, 236.399 41.456 M 239.894 50.488 C 223.628 53.579, 206.837 61.463, 195.246 71.452 C 179.862 84.709, 165.328 106.534, 164.222 118.039 C 163.676 123.721, 165.388 125.424, 171.298 125.077 C 175.951 124.804, 175.856 124.799, 181.519 125.599 C 183.729 125.911, 191.604 125.262, 199.019 124.156 C 234.019 118.939, 270.316 118.657, 305.500 123.330 C 326.298 126.092, 342.593 126.412, 345.364 124.113 C 349.199 120.930, 346.328 112.400, 336.400 97.480 C 319.942 72.746, 300.965 57.572, 279.442 51.937 C 268.980 49.198, 250.289 48.513, 239.894 50.488 M 238.500 60.417 C 221.072 64.464, 208.029 71.734, 195.479 84.397 C 180.977 99.030, 176.945 106.963, 182.250 110.420 C 184.243 111.719, 185.758 111.674, 195.500 110.022 C 214.208 106.852, 228.521 105.851, 255 105.861 C 281.422 105.872, 295.806 106.799, 314.340 109.687 C 326.581 111.595, 328.315 111.165, 328.817 106.101 C 329.196 102.276, 326.208 96.818, 319.036 88.234 C 309.375 76.672, 292.001 65.764, 276.500 61.528 C 268.156 59.247, 246.291 58.609, 238.500 60.417 M 239.500 65.419 C 221.683 68.901, 209.614 75.279, 196.885 87.938 C 186.612 98.155, 183.131 103.248, 184.935 105.422 C 185.791 106.454, 188.065 106.343, 196.748 104.847 C 232.541 98.679, 274.869 98.416, 309 104.150 C 325.073 106.851, 324.451 106.838, 324.789 104.481 C 325.233 101.383, 319.705 93.871, 310.855 85.545 C 301.597 76.837, 289.515 70.281, 276.500 66.905 C 266.262 64.250, 249.024 63.557, 239.500 65.419 M 227.934 125.076 C 209.602 125.988, 192.187 128.123, 175.320 131.526 C 160.250 134.566, 153.639 136.922, 153.157 139.423 C 152.844 141.047, 153.234 141.202, 156.149 140.612 C 193.560 133.043, 209.911 131.522, 254 131.510 C 291.392 131.500, 302.152 132.163, 329.500 136.162 C 348.443 138.932, 355 139.464, 355 138.229 C 355 136.737, 348.235 134.289, 337.753 131.985 C 322.452 128.623, 298.817 125.988, 275 124.987 C 250.419 123.954, 250.489 123.954, 227.934 125.076 M 246.929 157.308 C 236.253 160.325, 225.347 169.521, 220.332 179.732 C 217.679 185.136, 217.501 186.289, 217.511 198 C 217.521 210.054, 217.638 210.737, 220.767 217.155 C 224.614 225.045, 232.245 232.500, 240.750 236.677 C 245.950 239.230, 247.504 239.500, 257 239.500 C 266.835 239.500, 267.880 239.301, 273.500 236.355 C 282.732 231.517, 288.447 225.900, 292.498 217.685 C 305.555 191.207, 287.032 157.679, 258.611 156.349 C 254.700 156.166, 249.443 156.598, 246.929 157.308 M 174.251 157.640 C 173.416 157.992, 173.194 159.378, 173.581 161.833 C 174.406 167.061, 171.014 171.686, 164.500 174.214 C 157.227 177.037, 156 178.472, 156 184.155 L 156 189 160.550 189 C 166.534 189, 170.822 191.329, 172.579 195.534 C 174.612 200.401, 174.353 203.562, 171.409 209.785 L 168.817 215.263 169.532 261.881 C 169.925 287.522, 170.581 308.950, 170.990 309.500 C 172.292 311.252, 173.229 359.740, 171.975 360.515 C 170.118 361.663, 169.525 360.145, 168.912 352.670 C 168.347 345.785, 168.317 345.918, 168.170 356 C 168.086 361.775, 168.307 368.913, 168.661 371.861 L 169.305 377.222 172.902 376.714 C 174.881 376.434, 178.671 375.260, 181.325 374.106 L 186.150 372.007 182.575 368.635 C 179.039 365.301, 179.001 365.177, 179.100 357.382 C 179.155 353.047, 179.511 348.375, 179.892 347 C 180.857 343.516, 184.594 342.027, 193.012 341.773 C 198.005 341.623, 200.394 341.137, 200.753 340.200 C 201.721 337.680, 198.194 335.666, 191.375 334.845 C 186.575 334.267, 183.968 333.393, 182.202 331.769 L 179.735 329.500 180.118 243.500 L 180.500 157.500 178 157.307 C 176.625 157.201, 174.938 157.351, 174.251 157.640 M 331 260.045 L 331 362.091 328.423 364.668 C 325.917 367.174, 325.598 367.227, 317.023 366.556 C 312.074 366.169, 307.959 366.258, 307.649 366.760 C 307.171 367.532, 332.059 375.441, 337.420 376.221 C 339.224 376.483, 339.327 375.840, 339.123 365.500 C 339.004 359.450, 338.426 352.987, 337.839 351.138 C 336.340 346.418, 337.252 337.484, 339.486 335.015 C 340.950 333.398, 342.564 333, 347.655 333 L 354 333 354 329.140 L 354 325.280 348.250 324.687 C 338.308 323.663, 339.035 328.498, 338.769 261.639 C 338.642 229.663, 338.548 201.373, 338.560 198.772 C 338.579 194.937, 339.130 193.474, 341.479 191.022 C 343.901 188.493, 345.146 188, 349.104 188 C 351.705 188, 353.983 187.553, 354.167 187.006 C 354.350 186.459, 354.349 183.835, 354.165 181.173 L 353.830 176.334 348.665 175.013 C 345.363 174.168, 342.328 172.521, 340.250 170.446 C 337.525 167.724, 337 166.457, 337 162.600 C 337 158.156, 336.899 158, 334 158 L 331 158 331 260.045 M 190 178.378 C 190 198.377, 190.403 199.869, 195.458 198.600 C 198.908 197.734, 199.944 195.283, 201.078 185.302 C 202.020 177.013, 203.824 171.654, 207.647 165.790 C 208.619 164.300, 209.114 162.780, 208.747 162.413 C 207.724 161.391, 200.054 160.092, 194.750 160.044 L 190 160 190 178.378 M 243 162.148 C 239.046 163.700, 235.487 166.315, 230.341 171.450 C 223.909 177.867, 222.955 179.338, 220.956 185.919 C 216.722 199.859, 219.899 214.782, 229.430 225.722 C 231.756 228.392, 235.918 231.333, 240.752 233.722 C 247.798 237.204, 249.067 237.500, 256.969 237.500 C 264.592 237.500, 266.262 237.145, 272.038 234.302 C 284.341 228.245, 291.791 218.608, 294.007 205.880 C 296.999 188.698, 288.003 171.041, 272.357 163.386 C 264.402 159.494, 251.181 158.937, 243 162.148 M 302.230 160.945 C 295.706 162.007, 295.393 162.825, 298.520 170.643 C 301.951 179.219, 304.970 193.641, 304.987 201.540 C 305.024 218.497, 295.707 233.020, 278.907 242.191 L 272.846 245.500 273.202 260 C 273.533 273.443, 273.775 275.005, 276.529 281.419 C 278.163 285.224, 279.950 288.487, 280.500 288.669 C 281.144 288.883, 281.500 282.073, 281.500 269.552 C 281.500 254.932, 281.823 249.780, 282.800 248.802 C 283.731 247.868, 289.250 247.358, 302.300 247 L 320.500 246.500 320.761 203.250 L 321.021 160 313.761 160.125 C 309.767 160.194, 304.579 160.563, 302.230 160.945 M 248.500 168.339 C 236.078 172.454, 228.080 181.845, 226.369 194.322 C 224.841 205.469, 233.087 219.864, 244.392 225.786 C 251.436 229.475, 263.257 229.632, 270 226.125 C 288.325 216.594, 292.631 193.223, 278.931 177.659 C 271.525 169.245, 258.140 165.145, 248.500 168.339 M 351 169.948 C 351 170.526, 352.958 171, 355.350 171 L 359.701 171 360.709 180.750 L 361.717 190.500 361.608 180 L 361.500 169.500 356.250 169.198 C 353.051 169.014, 351 169.307, 351 169.948 M 375.357 169.992 C 371.076 171.719, 370 174.779, 370 185.223 L 370 195 374.800 195 L 379.600 195 380.800 189.190 C 381.460 185.994, 382 182.136, 382 180.616 C 382 178.517, 382.420 177.938, 383.750 178.208 C 385.651 178.593, 385.738 179.639, 384.553 187.870 C 383.648 194.151, 385.021 194.529, 388.750 189.025 C 393.039 182.695, 390.329 173.289, 383.380 170.385 C 379.635 168.820, 378.408 168.760, 375.357 169.992 M 149.607 173.582 C 149.273 174.452, 149.083 178.389, 149.183 182.332 L 149.367 189.500 149.933 181.500 L 150.500 173.500 155.750 173.543 C 158.637 173.566, 161 173.229, 161 172.793 C 161 172.357, 158.573 172, 155.607 172 C 151.612 172, 150.057 172.410, 149.607 173.582 M 123.750 177.080 C 121.754 178.243, 121.323 184.866, 123.035 188.066 C 123.913 189.706, 125.166 189.998, 131.285 189.985 C 135.253 189.976, 139.069 189.608, 139.764 189.167 C 140.459 188.726, 141.121 186.212, 141.236 183.581 C 141.397 179.867, 141.016 178.485, 139.531 177.399 C 137.294 175.763, 126.389 175.543, 123.750 177.080 M 153.459 177.067 C 152.320 178.909, 153.830 179.313, 155.524 177.619 C 156.922 176.221, 156.936 176, 155.630 176 C 154.799 176, 153.821 176.480, 153.459 177.067 M 249.239 177.335 C 240.567 180.480, 235.061 188.399, 235.022 197.782 C 234.969 210.608, 244.438 220.317, 257 220.317 C 275.460 220.317, 285.874 199.323, 274.689 184.659 C 269.274 177.560, 257.757 174.246, 249.239 177.335 M 372.545 179.859 C 371.449 183.313, 372.946 185, 377.107 185 C 380.889 185, 381 184.901, 381 181.500 C 381 178.093, 380.895 178, 377.067 178 C 374.112 178, 372.988 178.462, 372.545 179.859 M 375.667 180.667 C 374.516 181.817, 374.938 183, 376.500 183 C 377.325 183, 378 182.325, 378 181.500 C 378 179.938, 376.817 179.516, 375.667 180.667 M 190.250 215.641 C 189.274 216.051, 189 227.076, 189 265.976 C 189 304.935, 189.272 315.877, 190.250 316.204 C 190.938 316.434, 195.393 316.437, 200.152 316.212 L 208.804 315.803 210.563 311.151 C 212.796 305.250, 214.335 302.762, 219.803 296.214 C 224.047 291.131, 224.273 290.520, 225.683 280.329 C 226.489 274.500, 226.883 268.669, 226.557 267.370 C 226.182 265.878, 223.598 263.514, 219.542 260.952 C 211.898 256.125, 203.645 247.475, 199.500 239.948 C 196.760 234.971, 196.500 233.678, 196.500 225 C 196.500 215.585, 196.478 215.498, 194 215.307 C 192.625 215.201, 190.938 215.351, 190.250 215.641 M 215.667 230.667 C 214.319 232.015, 215.055 239.187, 216.916 242.835 C 219.236 247.382, 226.915 254.649, 231.367 256.509 C 233.152 257.255, 236.358 258.008, 238.490 258.183 C 242.241 258.490, 242.394 258.377, 243.165 254.766 C 244.423 248.871, 242.920 246.541, 235.606 243.050 C 232.029 241.344, 226.655 237.709, 223.661 234.974 C 218.293 230.067, 216.976 229.357, 215.667 230.667 M 255.545 248.250 C 255.329 248.938, 254.861 257.488, 254.504 267.250 L 253.855 285 258.928 285 L 264 285 263.994 274.250 C 263.991 268.337, 263.699 259.788, 263.346 255.250 L 262.704 247 259.320 247 C 257.460 247, 255.761 247.563, 255.545 248.250 M 291 275.672 L 291 293.397 295.364 299.948 C 299.452 306.085, 300.936 309.513, 302.439 316.289 L 303.057 319.077 311.779 318.789 L 320.500 318.500 320.500 288.500 L 320.500 258.500 305.750 258.223 L 291 257.947 291 275.672 M 242.500 289.402 C 235.007 291.778, 229.508 295.277, 223.250 301.651 C 214.185 310.884, 215.096 313.341, 224.309 304.508 C 228.329 300.653, 234.120 296.258, 237.178 294.740 C 247.796 289.470, 260.527 288.881, 272.765 293.091 C 279.441 295.388, 279.576 295.399, 278.003 293.503 C 277.319 292.680, 273.842 291.105, 270.275 290.003 C 262.757 287.681, 248.875 287.381, 242.500 289.402 M 244.324 302.923 C 237.150 306.317, 231.086 312.153, 227.819 318.807 C 225.907 322.701, 225.514 325.117, 225.508 333 C 225.501 341.373, 225.830 343.172, 228.280 348.161 C 238.379 368.727, 267.162 372.848, 282.392 355.909 C 288.167 349.485, 290.395 342.334, 289.793 332.155 C 289.243 322.873, 286.778 316.891, 280.839 310.424 C 271.243 299.974, 256.820 297.012, 244.324 302.923 M 292.050 306.448 C 293.962 309.298, 295.553 310.840, 295.805 310.085 C 296.045 309.365, 294.552 307.138, 292.487 305.137 L 288.732 301.500 292.050 306.448 M 373.020 304.284 C 369.094 306.271, 368.031 309.629, 368.015 320.095 C 368.002 328.395, 368.267 329.932, 369.977 331.480 C 373.895 335.025, 382.083 331.867, 386.750 325.010 C 391.183 318.497, 388.307 307.280, 381.473 304.424 C 377.325 302.691, 376.205 302.673, 373.020 304.284 M 248.718 306.437 C 240.626 309.324, 233.808 316.104, 231.156 323.899 C 229.531 328.678, 229.719 337.819, 231.554 343.205 C 237.669 361.152, 261.505 366.756, 275.823 353.613 C 288.302 342.157, 288.196 323.384, 275.589 312.287 C 267.907 305.525, 257.577 303.276, 248.718 306.437 M 357.250 305.716 L 360 306.133 360 319.566 C 360 329.647, 360.312 333, 361.250 332.999 C 362.190 332.999, 362.500 329.531, 362.500 318.999 L 362.500 304.999 358.500 305.149 C 355.496 305.262, 355.185 305.403, 357.250 305.716 M 371.211 311.873 C 370.655 312.218, 370.043 314.075, 369.850 316 C 369.520 319.303, 369.683 319.518, 372.750 319.813 C 375.921 320.119, 376 320.030, 376 316.180 C 376 313.151, 375.561 312.118, 374.111 311.739 C 373.072 311.467, 371.767 311.527, 371.211 311.873 M 378.750 311.696 C 376.637 312.240, 376.347 317.213, 378.332 318.861 C 380.481 320.644, 383.240 317.989, 382.836 314.528 C 382.484 311.519, 381.657 310.946, 378.750 311.696 M 371 314 C 371 314.550, 371.788 315.014, 372.750 315.032 C 374.417 315.062, 374.417 315.127, 372.750 316.392 C 370.624 318.006, 370.506 319, 372.441 319 C 374.418 319, 375.253 317.372, 374.497 314.991 C 373.856 312.972, 371 312.163, 371 314 M 378.754 314.250 C 378.158 315.872, 378.912 318, 380.083 318 C 380.587 318, 381 316.875, 381 315.500 C 381 312.892, 379.550 312.085, 378.754 314.250 M 167 316.500 C 166.152 317.522, 163.882 318, 159.878 318 L 154 318 154 329 L 154 340 161.500 340 L 169 340 169 327.500 C 169 320.625, 168.830 315, 168.622 315 C 168.415 315, 167.685 315.675, 167 316.500 M 155.445 327.174 C 154.967 328.679, 155.296 329.743, 156.516 330.635 C 159.127 332.545, 161.866 330.752, 161.252 327.535 C 160.618 324.223, 156.463 323.965, 155.445 327.174 M 305.500 332.155 C 301.659 334.256, 301 336.148, 301 345.084 C 301 355.156, 300.848 355, 310.648 355 C 320.615 355, 321 354.589, 321 343.965 C 321 336.333, 320.703 334.703, 319 333 C 316.745 330.745, 308.968 330.258, 305.500 332.155 M 218 375.127 C 216.625 375.677, 208.975 377.682, 201 379.582 C 184.368 383.545, 165 389.733, 165 391.083 C 165 391.587, 165.113 392, 165.250 392 C 165.387 392, 170 393.612, 175.500 395.581 C 192.149 401.541, 218.997 405.967, 238.643 405.990 C 248.173 406.002, 248 406.196, 248 395.483 C 248 384.667, 247.366 383.611, 239.316 381.033 C 235.567 379.833, 230.620 377.759, 228.322 376.425 C 223.819 373.811, 221.893 373.569, 218 375.127 M 280.563 377.879 C 278.908 381.078, 277.213 382, 272.983 382 C 271.414 382, 268.976 382.439, 267.565 382.975 C 265.023 383.942, 265 384.050, 265 395.128 L 265 406.306 276.250 405.694 C 298.717 404.473, 322.971 399.664, 335.877 393.872 C 341.209 391.479, 342.056 390.772, 341.047 389.557 C 339.323 387.479, 332.207 385.527, 309.789 380.979 C 298.947 378.779, 288.905 376.534, 287.473 375.990 C 283.406 374.443, 282.164 374.783, 280.563 377.879 M 154.104 379.914 C 152.069 381.203, 153.550 384, 156.269 384 C 158.841 384, 161 382.312, 161 380.300 C 161 378.819, 156.253 378.554, 154.104 379.914 M 349 380.521 C 349 382.636, 353.693 384.707, 355.160 383.240 C 355.768 382.632, 355.995 381.429, 355.664 380.567 C 354.855 378.459, 349 378.419, 349 380.521 M 358.290 384.423 C 359.136 388.123, 358.996 389.317, 357.397 392.028 C 352.347 400.590, 328.381 409.620, 300 413.655 C 285.263 415.750, 238.715 416.579, 221.846 415.046 C 187.706 411.945, 161.414 404.304, 152.360 394.853 C 149.924 392.312, 149.500 391.055, 149.500 386.389 C 149.500 381.046, 149.437 380.924, 147 381.523 C 140.469 383.127, 128 392.737, 128 396.166 C 128 397.229, 128.648 399.353, 129.441 400.886 C 134.916 411.474, 167.263 423.144, 206 428.507 C 221.220 430.614, 267.345 431.577, 285.070 430.159 C 323.333 427.096, 353.226 419.452, 369.364 408.602 C 375.613 404.401, 380 399.143, 380 395.855 C 380 391.392, 368.487 382.687, 359.893 380.651 L 357.285 380.033 358.290 384.423 M 142.250 425.662 C 138.428 427.204, 143.974 433.938, 152.327 437.897 C 161.094 442.053, 169.351 444.580, 183.325 447.382 C 209.176 452.567, 220.180 453.504, 254.500 453.445 C 283.502 453.395, 288.327 453.139, 306 450.710 C 316.725 449.237, 330.450 446.904, 336.500 445.526 C 354.075 441.525, 366.611 434.264, 365.794 428.559 C 365.343 425.403, 362.393 425.571, 349.463 429.490 C 334.083 434.152, 323.689 436.429, 306.500 438.901 C 254.670 446.355, 206.588 443.160, 157.630 429.009 C 150.002 426.804, 143.702 425.036, 143.630 425.079 C 143.559 425.122, 142.938 425.385, 142.250 425.662" stroke="none" fill="black" fill-rule="evenodd"/>
</svg>